<!-- Generated by IcoMoon.io -->
<svg version="1.1" xmlns="http://www.w3.org/2000/svg" width="512" height="512" viewBox="0 0 512 512">
<title></title>
<g id="icomoon-ignore">
</g>
<path d="M483.4 116.8c0 1.6-0.5 3.1-1.5 4.5-1 1.3-2.1 2-3.4 2-10 1-18.2 4.2-24.5 9.6-6.4 5.4-12.9 15.9-19.6 31.2l-103.2 232.7c-0.7 2.2-2.6 3.2-5.7 3.2-2.4 0-4.3-1.1-5.7-3.2l-57.9-121-66.6 121c-1.4 2.2-3.2 3.2-5.7 3.2-3 0-4.9-1.1-5.9-3.2l-101.3-232.6c-6.3-14.4-13-24.5-20-30.2s-16.8-9.3-29.3-10.6c-1.1 0-2.1-0.6-3-1.7-1-1.1-1.4-2.4-1.4-3.9 0-3.8 1.1-5.7 3.2-5.7 9 0 18.5 0.4 28.4 1.2 9.2 0.8 17.8 1.2 25.9 1.2 8.2 0 18-0.4 29.2-1.2 11.7-0.8 22.1-1.2 31.2-1.2 2.2 0 3.2 1.9 3.2 5.7s-0.7 5.6-2 5.6c-9 0.7-16.2 3-21.4 6.9s-7.8 9-7.8 15.4c0 3.2 1.1 7.3 3.2 12.1l83.7 189.2 47.6-89.8-44.3-92.9c-8-16.6-14.5-27.3-19.6-32.1s-12.9-7.7-23.3-8.8c-1 0-1.8-0.6-2.7-1.7s-1.3-2.4-1.3-3.9c0-3.8 0.9-5.7 2.8-5.7 9 0 17.3 0.4 24.9 1.2 7.3 0.8 15 1.2 23.3 1.2 8.1 0 16.6-0.4 25.7-1.2 9.3-0.8 18.5-1.2 27.5-1.2 2.2 0 3.2 1.9 3.2 5.7s-0.6 5.6-2 5.6c-18.1 1.2-27.1 6.4-27.1 15.4 0 4 2.1 10.3 6.3 18.8l29.3 59.5 29.2-54.4c4-7.7 6.1-14.2 6.1-19.4 0-12.4-9-19-27.1-19.8-1.6 0-2.4-1.9-2.4-5.6 0-1.4 0.4-2.6 1.2-3.8s1.6-1.8 2.4-1.8c6.5 0 14.4 0.4 23.9 1.2 9 0.8 16.5 1.2 22.3 1.2 4.2 0 10.3-0.4 18.4-1 10.2-0.9 18.8-1.4 25.7-1.4 1.6 0 2.4 1.6 2.4 4.8 0 4.3-1.5 6.5-4.4 6.5-10.5 1.1-19 4-25.4 8.7s-14.4 15.4-24 32.2l-39.1 71.6 52.6 107.2 77.7-180.7c2.7-6.6 4-12.7 4-18.2 0-13.2-9-20.2-27.1-21.1-1.6 0-2.4-1.9-2.4-5.6 0-3.8 1.2-5.7 3.6-5.7 6.6 0 14.4 0.4 23.5 1.2 8.4 0.8 15.4 1.2 21 1.2 6 0 12.8-0.4 20.6-1.2 8.1-0.8 15.4-1.2 21.9-1.2 2 0 3 1.6 3 4.8z"></path>
</svg>
